<?xml version="1.0" encoding="UTF-8" standalone="no"?>
<!-- Created with Inkscape (http://www.inkscape.org/) -->

<svg
   width="156mm"
   height="156mm"
   viewBox="0 0 156 156"
   version="1.1"
   id="svg1"
   inkscape:version="1.4.2 (ebf0e940d0, 2025-05-08)"
   sodipodi:docname="prdl_logo_web.svg"
   xml:space="preserve"
   inkscape:export-filename="prdl_logo.png"
   inkscape:export-xdpi="97.690002"
   inkscape:export-ydpi="97.690002"
   xmlns:inkscape="http://www.inkscape.org/namespaces/inkscape"
   xmlns:sodipodi="http://sodipodi.sourceforge.net/DTD/sodipodi-0.dtd"
   xmlns="http://www.w3.org/2000/svg"
   xmlns:svg="http://www.w3.org/2000/svg"><sodipodi:namedview
     id="namedview1"
     pagecolor="#ffffff"
     bordercolor="#000000"
     borderopacity="0.25"
     inkscape:showpageshadow="2"
     inkscape:pageopacity="0.0"
     inkscape:pagecheckerboard="0"
     inkscape:deskcolor="#d1d1d1"
     inkscape:document-units="mm"
     inkscape:zoom="1.0078851"
     inkscape:cx="159.24434"
     inkscape:cy="324.44174"
     inkscape:window-width="1920"
     inkscape:window-height="1011"
     inkscape:window-x="0"
     inkscape:window-y="0"
     inkscape:window-maximized="1"
     inkscape:current-layer="layer1"
     showguides="true"><sodipodi:guide
       position="78.532158,189.12308"
       orientation="1,0"
       id="guide4"
       inkscape:locked="false" /><sodipodi:guide
       position="136.91267,219.50467"
       orientation="0,-1"
       id="guide5"
       inkscape:locked="false" /></sodipodi:namedview><defs
     id="defs1" /><g
     inkscape:label="Warstwa 1"
     inkscape:groupmode="layer"
     id="layer1"
     transform="translate(-27.000001,-70.500001)"><rect
       style="fill:#ffffff;fill-opacity:1;stroke:#ffffff;stroke-width:9.59509;stroke-dasharray:none;stroke-opacity:1"
       id="rect2-3"
       width="146.40491"
       height="146.40491"
       x="31.797548"
       y="75.297546" /><circle
       style="opacity:0.4;fill:none;fill-opacity:1;stroke:#b4282e;stroke-width:10.4989;stroke-dasharray:none;stroke-opacity:1"
       id="path1"
       cx="105"
       cy="148.5"
       r="24.750542" /><ellipse
       style="opacity:0.6;fill:none;fill-opacity:1;stroke:#b4282e;stroke-width:10.2377;stroke-dasharray:none;stroke-opacity:1"
       id="path1-2"
       cx="105"
       cy="148.5"
       rx="39.88113"
       ry="41.007359" /><rect
       style="opacity:1;fill:#ffffff;fill-opacity:1;stroke:none;stroke-width:11.3707;stroke-dasharray:none;stroke-opacity:1"
       id="rect7"
       width="150"
       height="30"
       x="30"
       y="133.5" /><ellipse
       style="opacity:0.8;fill:none;fill-opacity:1;stroke:#b4282e;stroke-width:10.3137;stroke-dasharray:none;stroke-opacity:1"
       id="path1-2-0"
       cx="105"
       cy="148.5"
       rx="54.843132"
       ry="56.391884" /><ellipse
       style="fill:none;fill-opacity:1;stroke:#b4282e;stroke-width:10.0131;stroke-dasharray:none;stroke-opacity:1"
       id="path1-2-0-6"
       cx="105"
       cy="148.5"
       rx="69.993439"
       ry="71.970016" /><path
       style="font-weight:900;font-size:27.4899px;line-height:0.8;font-family:'Adwaita Sans';-inkscape-font-specification:'Adwaita Sans Heavy';text-align:center;text-anchor:middle;stroke-width:19.481"
       d="m 63.765142,158.49998 v -19.99997 h 8.496634 q 2.389259,0 4.134224,0.85906 1.744964,0.84563 2.68456,2.4161 0.953019,1.55705 0.953019,3.7047 0,2.13422 -0.953019,3.70469 -0.939596,1.57047 -2.68456,2.42953 -1.744965,0.84563 -4.134224,0.84563 h -5.288584 v -4.5906 h 4.872477 q 0.845637,0 1.449663,-0.2953 0.617449,-0.2953 0.953019,-0.83221 0.33557,-0.53691 0.33557,-1.26174 0,-0.73826 -0.33557,-1.26175 -0.33557,-0.53691 -0.953019,-0.83221 -0.604026,-0.2953 -1.449663,-0.2953 h -2.496641 v 15.40937 z m 17.812059,0 v -19.99997 h 8.496635 q 2.389259,0 4.134223,0.85906 1.744964,0.84563 2.684561,2.4161 0.953019,1.55705 0.953019,3.7047 0,2.08053 -0.993288,3.59731 -0.979864,1.51677 -2.791943,2.34899 -1.798655,0.81879 -4.281874,0.81879 h -4.765095 v -4.32214 h 4.64429 q 0.845636,0 1.449663,-0.30873 0.617449,-0.30872 0.953019,-0.85906 0.33557,-0.55033 0.33557,-1.27516 0,-0.73826 -0.33557,-1.27517 -0.33557,-0.55034 -0.953019,-0.85906 -0.604027,-0.30872 -1.449663,-0.30872 h -2.496641 v 15.46306 z m 11.073813,0 -4.348988,-9.07381 h 5.704691 l 4.456371,9.07381 z m 17.140916,-12.02683 v 4.05369 h -9.36912 v -4.05369 z m 10.51006,12.02683 h -5.47651 v -4.61744 h 5.20805 q 1.63758,0 2.68456,-0.57718 1.04698,-0.5906 1.55705,-1.78523 0.51006,-1.19463 0.51006,-3.00671 0,-1.83892 -0.52349,-3.03355 -0.52349,-1.19463 -1.61073,-1.77181 -1.08725,-0.59061 -2.77852,-0.59061 h -5.12751 v -4.61744 h 5.4765 q 3.08724,0 5.38254,1.2349 2.2953,1.23489 3.55705,3.48992 1.26174,2.24161 1.26174,5.28859 0,3.03355 -1.24832,5.27516 -1.24832,2.24161 -3.51677,3.47651 -2.26846,1.23489 -5.3557,1.23489 z m -2.22819,-19.99997 v 19.99997 h -5.58388 v -19.99997 z m 13.95972,19.99997 v -19.99997 h 5.58389 v 15.27515 h 8.61744 v 4.72482 z"
       id="text2"
       aria-label="PR-DL" /><rect
       style="fill:none;fill-opacity:1;stroke:#b4282e;stroke-width:9.59509;stroke-dasharray:none;stroke-opacity:1"
       id="rect2"
       width="146.40491"
       height="146.40491"
       x="31.797546"
       y="75.297546" /></g></svg>
